<svg xmlns="http://www.w3.org/2000/svg"><symbol id="settings" viewBox="0 0 72 72"><path d="M72 40.8v-9.6l-8.6-3.1a30.4 30.4 0 0 0-2.4-5.9l3.9-8.2L58 7.1 49.8 11a30.4 30.4 0 0 0-5.9-2.4L40.8 0h-9.6l-3.1 8.6a30.4 30.4 0 0 0-5.9 2.4L14 7.1 7.1 14l3.9 8.2a30.4 30.4 0 0 0-2.4 5.9L0 31.2v9.6l8.6 3.1a30.4 30.4 0 0 0 2.4 5.9L7.1 58l6.9 6.9 8.2-3.9a30.4 30.4 0 0 0 5.9 2.4l3.1 8.6h9.6l3.1-8.6a30.4 30.4 0 0 0 5.9-2.4l8.2 3.9 6.9-6.9-3.9-8.2a30.4 30.4 0 0 0 2.4-5.9zM36 48a12 12 0 1 1 12-12 12 12 0 0 1-12 12z"/></symbol><symbol id="phil" viewBox="0 0 72 72"><path d="M42 24.6a8 8 0 0 0-5.1-1.4h-8.2V34h8.2a8.4 8.4 0 0 0 5.1-1.4 4.9 4.9 0 0 0 1.7-4 5 5 0 0 0-1.7-4z"/><path d="M36 0a36 36 0 1 0 36 36A36 36 0 0 0 36 0zm10.5 36.1c-2.1 1.9-5.1 2.8-8.9 2.8h-8.9v14.8h-6.5V18.3h15.4c3.9 0 6.8.9 9 2.7a9.7 9.7 0 0 1 3.2 7.6 9.2 9.2 0 0 1-3.3 7.5z"/></symbol><symbol id="twitter" viewBox="0 0 72 72"><path d="M64.6 20.6v1.9c0 19.5-14.8 42-41.9 42A41.7 41.7 0 0 1 0 57.9h3.6a29.4 29.4 0 0 0 18.3-6.3A14.8 14.8 0 0 1 8.1 41.5l2.8.2a17.4 17.4 0 0 0 3.9-.5A14.7 14.7 0 0 1 2.9 26.7a15.2 15.2 0 0 0 6.7 1.8A14.5 14.5 0 0 1 3 16.1a14.4 14.4 0 0 1 2-7.4 42.1 42.1 0 0 0 30.5 15.4 12.4 12.4 0 0 1-.4-3.3 14.7 14.7 0 0 1 25.5-10.1A29.6 29.6 0 0 0 70 7.1a14.5 14.5 0 0 1-6.5 8.1 26.7 26.7 0 0 0 8.5-2.3 30.1 30.1 0 0 1-7.4 7.7z"/></symbol><symbol id="facebook" viewBox="0 0 72 72"><path d="M72 4v64a4 4 0 0 1-4 4H49.7V44.1H59l1.4-10.8H49.7v-7c0-3.1.8-5.3 5.3-5.3h5.8v-9.7c-1-.1-4.4-.4-8.4-.4-8.3 0-14 5-14 14.3v8.1H29v10.8h9.4V72H4a4 4 0 0 1-4-4V4a4 4 0 0 1 4-4h64a4 4 0 0 1 4 4z"/></symbol><symbol id="add" viewBox="0 0 72 72"><path d="M36.1.4a36 36 0 1 0 35.9 36A36 36 0 0 0 36.1.4zm19.8 40.1H41.2v17.1a5.1 5.1 0 0 1-10.2 0V40.5H16.1a5.1 5.1 0 0 1-5.1-5.1 5.1 5.1 0 0 1 5.1-5.1H31V14.2a5.1 5.1 0 0 1 10.2 0v16.1h14.7a5.1 5.1 0 0 1 5.1 5.1 5.1 5.1 0 0 1-5.1 5.1z"/></symbol><symbol id="maria" viewBox="0 0 72 72"><path d="M36 0a36 36 0 1 0 36 36A36 36 0 0 0 36 0zm17.2 53.7h-5.7v-22l-9.4 22h-4.2L24.5 32v21.7h-5.7V18.3h5.1L36 46l12.1-27.7h5.1z"/></symbol></svg>