<svg xmlns="http://www.w3.org/2000/svg"><symbol id="add" viewBox="0 0 72 72"><path d="M36.07.44A35.93 35.93 0 1 0 72 36.37 35.93 35.93 0 0 0 36.07.44zm19.81 40.1H41.21v17.07a5.1 5.1 0 0 1-10.2 0V40.54H16.08a5.1 5.1 0 1 1 0-10.2H31V14.21a5.1 5.1 0 0 1 10.2 0v16.13h14.68a5.1 5.1 0 0 1 0 10.2z"/></symbol><symbol id="settings" viewBox="0 0 72 72"><defs><style>.cls-1{fill:#010101}</style></defs><path d="M72 40.85v-9.7l-8.61-3.06A28 28 0 0 0 61 22.23L64.88 14 58 7.12 49.78 11a28 28 0 0 0-5.87-2.43L40.85 0h-9.7l-3.06 8.61A28 28 0 0 0 22.22 11L14 7.12 7.12 14 11 22.23a28 28 0 0 0-2.43 5.86L0 31.15v9.7l8.61 3.06A28 28 0 0 0 11 49.77L7.12 58 14 64.88 22.22 61a28 28 0 0 0 5.87 2.43L31.15 72h9.7l3.06-8.61A28 28 0 0 0 49.78 61L58 64.88 64.88 58 61 49.77a28 28 0 0 0 2.43-5.86zM36 48a12 12 0 1 1 12-12 12 12 0 0 1-12 12z" class="cls-1"/></symbol><symbol id="twitter" viewBox="0 0 72 72"><defs><style>.cls-1{fill:#010101}</style></defs><path d="M64.6 20.57v1.92c0 19.51-14.84 42-42 42A41.64 41.64 0 0 1 0 57.85a29.87 29.87 0 0 0 3.56.15 29.52 29.52 0 0 0 18.32-6.31A14.78 14.78 0 0 1 8.09 41.5a19.43 19.43 0 0 0 2.78.23 15.66 15.66 0 0 0 3.89-.51A14.76 14.76 0 0 1 2.92 26.74v-.18a15 15 0 0 0 6.67 1.87A14.78 14.78 0 0 1 5 8.7a41.94 41.94 0 0 0 30.45 15.44 16.58 16.58 0 0 1-.36-3.38 14.76 14.76 0 0 1 25.53-10.1A29 29 0 0 0 70 7.1a14.77 14.77 0 0 1-6.49 8.13A29.36 29.36 0 0 0 72 12.94a31.55 31.55 0 0 1-7.4 7.63z" class="cls-1"/></symbol><symbol id="facebook" viewBox="0 0 72 72"><defs><style>.cls-1{fill:#010101}</style></defs><path d="M72 4v64a4 4 0 0 1-4 4H49.68V44.12H59l1.4-10.87H49.66v-6.94c0-3.15.87-5.29 5.38-5.29h5.76V11.3a76.58 76.58 0 0 0-8.39-.44c-8.29 0-14 5.07-14 14.37v8H29v10.89h9.39V72H4a4 4 0 0 1-4-4V4a4 4 0 0 1 4-4h64a4 4 0 0 1 4 4z" class="cls-1"/></symbol><symbol id="add" viewBox="0 0 72 72"><path d="M36.07.44A35.93 35.93 0 1 0 72 36.37 35.93 35.93 0 0 0 36.07.44zm19.81 40.1H41.21v17.07a5.1 5.1 0 0 1-10.2 0V40.54H16.08a5.1 5.1 0 1 1 0-10.2H31V14.21a5.1 5.1 0 0 1 10.2 0v16.13h14.68a5.1 5.1 0 0 1 0 10.2z"/></symbol></svg>