<svg id="Layer_2" data-name="Layer 2" xmlns="http://www.w3.org/2000/svg" width="64" height="59.2" viewBox="0 0 64 59.2"><title>logo-64</title><g id="Group_2" data-name="Group 2"><path id="Path_10" data-name="Path 10" d="M32.1,0V15.8c0,4-1.3,6.4-4.4,9S15.2,35.5,15.1,49.1c0,3.1-10.9,5.4-12.8,5.7s-3.7,3.3,0,4.1,13.4.5,17.6-2.2S25,52.8,25.7,49c0,0,7.7,1.3,10.4.1,0,0,1.9,3.2-1.1,8.5,0,0,17,.8,20.7-.5,0,0-3-4.5-6.8-4.6l-7-.2s-.6-2,.1-2.9,4.9-7.7-3.7-15.1c0,0,6.7.9,7.1,3.5,0,0,3.3-11.5-2.3-21.6-1.6-.8-7.5-3.3-4.6-10.4a7.8,7.8,0,0,1,7.3,3.7s7.4-2.1,8,2.5a3.7,3.7,0,0,0,3.4,1.1s3.9,3-5.8,4.4v6.9s12.5,0,12.5-12.9S47.1,0,32.1,0Z" fill="#56cdd0"/></g></svg>