<svg id="Layer_2" data-name="Layer 2" xmlns="http://www.w3.org/2000/svg" width="16" height="16" viewBox="0 0 16 16"><title>logo-16</title><g id="Group_2" data-name="Group 2"><path id="Path_10" data-name="Path 10" d="M8,.7V4.6A2.4,2.4,0,0,1,6.9,6.8a8.2,8.2,0,0,0-3.1,6c0,.8-2.6,1.3-3.1,1.4s-.9.8,0,1A8.1,8.1,0,0,0,5,14.7a2.8,2.8,0,0,0,1.5-1.9,6.7,6.7,0,0,0,2.5,0,2,2,0,0,1-.3,2.1,30.2,30.2,0,0,0,5.1-.1s-.7-1.1-1.6-1.2H10.4s-.1-.5.1-.7,1.2-1.9-.9-3.7c0,0,1.6.2,1.7.8a7.6,7.6,0,0,0-.6-5.3A1.8,1.8,0,0,1,9.6,2.1a2.1,2.1,0,0,1,1.8.9s1.8-.5,2,.7a.8.8,0,0,0,.8.2s1,.8-1.4,1.1V6.7a3,3,0,0,0,3-3.2C15.8.4,11.7.7,8,.7Z" fill="#56cdd0"/></g></svg>