<svg id="Layer_2" data-name="Layer 2" xmlns="http://www.w3.org/2000/svg" width="32" height="29.8" viewBox="0 0 32 29.8"><title>logo-32</title><g id="Group_2" data-name="Group 2"><path id="Path_10" data-name="Path 10" d="M16,0V7.9a5.3,5.3,0,0,1-2.2,4.6c-1.5,1.2-6.2,5.3-6.3,12.2,0,1.5-5.4,2.7-6.4,2.8s-1.9,1.7,0,2.1,6.7.2,8.8-1.1,2.6-2,2.9-3.9c0,0,3.9.7,5.3.1s.9,1.6-.6,4.2c0,0,8.6.4,10.4-.2,0,0-1.5-2.3-3.4-2.4H21a2.4,2.4,0,0,1,0-1.5c.4-.4,2.5-3.9-1.8-7.6,0,0,3.3.5,3.5,1.8s1.7-5.8-1.1-10.9c-.8-.4-3.8-1.6-2.3-5.2a3.7,3.7,0,0,1,3.6,1.9s3.7-1.1,4,1.2a2,2,0,0,0,1.8.6s1.9,1.5-3,2.2v3.4s6.3,0,6.3-6.4S23.6,0,16,0Z" fill="#56cdd0"/></g></svg>