<svg id="Layer_2" data-name="Layer 2" xmlns="http://www.w3.org/2000/svg" width="32" height="32" viewBox="0 0 32 32"><title>logo-32</title><g id="Group_2" data-name="Group 2"><path id="Path_10" data-name="Path 10" d="M16,1.1V9a5.2,5.2,0,0,1-2.2,4.6C12.3,14.9,7.6,19,7.5,25.8c0,1.6-5.4,2.7-6.4,2.8s-1.9,1.7,0,2.1,6.7.3,8.8-1.1,2.6-2,2.9-3.9c0,0,3.9.7,5.3.1s.9,1.6-.6,4.2c0,0,8.6.4,10.4-.2,0,0-1.5-2.3-3.4-2.3H21s-.3-1,0-1.4,2.5-3.9-1.8-7.6c0,0,3.3.4,3.5,1.7s1.7-5.8-1.1-10.8c-.8-.5-3.8-1.7-2.3-5.3a3.9,3.9,0,0,1,3.6,1.9s3.7-1,4,1.3a2.3,2.3,0,0,0,1.8.5s1.9,1.5-3,2.2v3.5s6.3,0,6.3-6.5S23.6,1.1,16,1.1Z" fill="#56cdd0"/></g></svg>