<svg id="Layer_2" data-name="Layer 2" xmlns="http://www.w3.org/2000/svg" width="128" height="37.6" viewBox="0 0 128 37.6"><title>logo</title><g id="Group_2" data-name="Group 2"><path id="Path_10" data-name="Path 10" d="M18.4,0V9.1a6,6,0,0,1-2.5,5.2c-1.8,1.4-7.2,6.1-7.3,14,0,1.8-6.2,3.1-7.3,3.2s-2.2,1.9,0,2.4,7.7.3,10.1-1.3,2.9-2.2,3.3-4.4c0,0,4.4.8,6,.1,0,0,1.1,1.8-.7,4.8,0,0,9.9.5,12-.2,0,0-1.8-2.7-3.9-2.7H24a2.5,2.5,0,0,1,.1-1.7c.4-.5,2.8-4.4-2.1-8.6,0,0,3.8.5,4,1.9s1.9-6.6-1.3-12.4c-.9-.5-4.3-1.9-2.6-6a4.5,4.5,0,0,1,4.2,2.2s4.2-1.2,4.6,1.4a1.8,1.8,0,0,0,1.9.6s2.3,1.7-3.3,2.6V14s7.2,0,7.2-7.4S27,0,18.4,0Z" fill="#56cdd0"/><g id="Group_1" data-name="Group 1"><path id="Path_2" data-name="Path 2" d="M46.1,27.2v5.2H43.5v-17h7.6c3.2,0,6,1.9,6,6a5.7,5.7,0,0,1-6,5.8Zm0-9.4v7h4.6a3.4,3.4,0,0,0,3.6-3.4,3.4,3.4,0,0,0-3.6-3.6Z" fill="#6f6f6f"/><path id="Path_3" data-name="Path 3" d="M64,20.2a6.2,6.2,0,1,1-6.4,6.2A6.2,6.2,0,0,1,64,20.2Zm0,10.1a3.9,3.9,0,1,0,0-7.8,3.9,3.9,0,0,0-3.9,3.9h0a3.7,3.7,0,0,0,3.7,3.9Z" fill="#6f6f6f"/><path id="Path_4" data-name="Path 4" d="M80.5,20.4H83v7.1c-.1,3.1-2.3,5.1-5.5,5.1s-5.5-2-5.5-5V20.4h2.5v6.8a3,3,0,1,0,6,0Z" fill="#6f6f6f"/><path id="Path_5" data-name="Path 5" d="M91.4,20.2A7.3,7.3,0,0,1,95,21l-.2,2.2a6.7,6.7,0,0,0-3.4-.7c-2.5,0-4.3,1.6-4.3,3.8a4,4,0,0,0,4.3,4,8,8,0,0,0,3.4-.7l.4,2.3a12.2,12.2,0,0,1-3.8.7c-4,0-6.8-2.5-6.8-6.3S87.4,20.2,91.4,20.2Z" fill="#6f6f6f"/><path id="Path_6" data-name="Path 6" d="M108.5,25.1v7.3H106V25.6a2.8,2.8,0,0,0-2.9-3.1,3.1,3.1,0,0,0-3.3,3.1v6.8H97.3V14.8h2.5v7.1a4.4,4.4,0,0,1,3.7-1.7C106.7,20.2,108.5,22.2,108.5,25.1Z" fill="#6f6f6f"/><path id="Path_7" data-name="Path 7" d="M113.4,32.4H111V14.8h2.4Z" fill="#6f6f6f"/><path id="Path_8" data-name="Path 8" d="M125.3,20.4H128l-5.7,13.5c-1,2.2-2,3.7-5,3.7a4.3,4.3,0,0,1-1.9-.4l.2-2.1a3.2,3.2,0,0,0,1.6.4c1.6,0,2.3-.9,2.8-2.3l.3-.6-5.2-12.2h2.7l3.8,9.4Z" fill="#6f6f6f"/></g></g></svg>