<svg id="Layer_2" data-name="Layer 2" xmlns="http://www.w3.org/2000/svg" width="128" height="128" viewBox="0 0 128 128"><title>logo</title><g id="Group_2" data-name="Group 2"><path id="Path_10" data-name="Path 10" d="M18.4,45.2v9.1a6,6,0,0,1-2.5,5.2c-1.8,1.4-7.2,6.1-7.3,13.9,0,1.8-6.2,3.1-7.3,3.3s-2.2,1.9,0,2.4,7.7.3,10.1-1.3,2.9-2.2,3.3-4.4c0,0,4.4.7,6,0,0,0,1.1,1.9-.7,4.9,0,0,9.9.5,12-.2,0,0-1.8-2.7-3.9-2.7H24s-.3-1.2.1-1.7,2.8-4.4-2.1-8.7c0,0,3.8.5,4,2s1.9-6.6-1.3-12.4c-.9-.5-4.3-1.9-2.6-6a4.5,4.5,0,0,1,4.2,2.2s4.2-1.2,4.6,1.4a2,2,0,0,0,1.9.6s2.3,1.7-3.3,2.6v3.9s7.2,0,7.2-7.4S27,45.2,18.4,45.2Z" fill="#56cdd0"/><g id="Group_1" data-name="Group 1"><path id="Path_2" data-name="Path 2" d="M46.1,72.4v5.2H43.5v-17h7.6c3.2,0,6,1.9,6,5.9a5.7,5.7,0,0,1-6,5.9Zm0-9.4v7h4.6a3.5,3.5,0,1,0,0-7Z" fill="#6f6f6f"/><path id="Path_3" data-name="Path 3" d="M64,65.3a6.3,6.3,0,0,1,6.4,6.3,6.4,6.4,0,0,1-12.8,0A6.3,6.3,0,0,1,64,65.3Zm0,10.2a3.8,3.8,0,0,0,3.9-3.9A3.8,3.8,0,0,0,64,67.7a3.9,3.9,0,0,0-3.9,3.9h0a3.8,3.8,0,0,0,3.7,3.9Z" fill="#6f6f6f"/><path id="Path_4" data-name="Path 4" d="M80.5,65.6H83v7.1a5.2,5.2,0,0,1-5.5,5.1c-3.2,0-5.5-2-5.5-5V65.6h2.5v6.8a3,3,0,1,0,6,0Z" fill="#6f6f6f"/><path id="Path_5" data-name="Path 5" d="M91.4,65.3a8.6,8.6,0,0,1,3.6.8l-.2,2.3a8.1,8.1,0,0,0-3.4-.8c-2.5,0-4.3,1.6-4.3,3.9a4,4,0,0,0,4.3,4,8,8,0,0,0,3.4-.7l.4,2.2a10,10,0,0,1-3.8.8c-4,0-6.8-2.5-6.8-6.3S87.4,65.3,91.4,65.3Z" fill="#6f6f6f"/><path id="Path_6" data-name="Path 6" d="M108.5,70.3v7.3H106V70.8c0-2-1.1-3.1-2.9-3.1a3,3,0,0,0-3.3,3.1v6.8H97.3V60h2.5v7.1a4.4,4.4,0,0,1,3.7-1.8A4.7,4.7,0,0,1,108.5,70.3Z" fill="#6f6f6f"/><path id="Path_7" data-name="Path 7" d="M113.4,77.6H111V60h2.4Z" fill="#6f6f6f"/><path id="Path_8" data-name="Path 8" d="M125.3,65.6H128l-5.7,13.5c-1,2.2-2,3.7-5,3.7a4.3,4.3,0,0,1-1.9-.4l.2-2.1a4.5,4.5,0,0,0,1.6.3c1.6,0,2.3-.8,2.8-2.2l.3-.7-5.2-12.1h2.7l3.8,9.4Z" fill="#6f6f6f"/></g></g></svg>