<svg id="Layer_1" data-name="Layer 1" xmlns="http://www.w3.org/2000/svg" width="1091" height="79" viewBox="0 0 1091 79"><title>progress-bar</title><g id="Group_21" data-name="Group 21"><g id="Group_15" data-name="Group 15"><path id="Rectangle_5" data-name="Rectangle 5" d="M39.5,0h1012A39.5,39.5,0,0,1,1091,39.5h0A39.5,39.5,0,0,1,1051.5,79H39.5A39.5,39.5,0,0,1,0,39.5H0A39.5,39.5,0,0,1,39.5,0Z" fill="#d8d8d8"/><path id="Rectangle_6" data-name="Rectangle 6" d="M39.5,0h608A39.5,39.5,0,0,1,687,39.5h0A39.5,39.5,0,0,1,647.5,79H39.5A39.5,39.5,0,0,1,0,39.5H0A39.5,39.5,0,0,1,39.5,0Z" fill="#5fc7cc"/></g><g id="_3450" data-name=" 3450" style="isolation:isolate"><g style="isolation:isolate"><path d="M496.1,52.8a13.8,13.8,0,0,1-7.6,3.5v5.5h-5V56.3a18.1,18.1,0,0,1-6.3-1.3,16.2,16.2,0,0,1-5-2.8l2.2-4.7a17.2,17.2,0,0,0,9.4,3.8V40.8a32,32,0,0,1-5.7-1.8,9.5,9.5,0,0,1-3.8-3.1,8.5,8.5,0,0,1-1.6-5.2,9.4,9.4,0,0,1,1.4-5,11.2,11.2,0,0,1,3.8-3.7,12.4,12.4,0,0,1,5.6-1.8V14.6h5v5.5a19.3,19.3,0,0,1,5.5,1.4,14.3,14.3,0,0,1,4.3,2.7l-2.2,4.6a15.6,15.6,0,0,0-7.9-3.5V36.1a44.5,44.5,0,0,1,5.5,1.8,9.9,9.9,0,0,1,3.8,2.9A8.4,8.4,0,0,1,499,46,9.2,9.2,0,0,1,496.1,52.8ZM480.4,33.1a9.8,9.8,0,0,0,3.4,1.9V25.3a6.8,6.8,0,0,0-3.4,1.7,4.8,4.8,0,0,0-1.2,3.3A3.5,3.5,0,0,0,480.4,33.1Zm11,16.2a4.5,4.5,0,0,0,1.1-3.1,3.1,3.1,0,0,0-1.1-2.5,8.7,8.7,0,0,0-3.2-1.7v9A5.8,5.8,0,0,0,491.4,49.3Z" fill="#f2f1eb"/><path d="M525.8,40.8a9.2,9.2,0,0,1,1.7,5.5,8.8,8.8,0,0,1-3.4,7.4q-3.5,2.7-9.3,2.7a22.6,22.6,0,0,1-6.9-1.1,17,17,0,0,1-5.5-3l2.2-4.8a16,16,0,0,0,10,3.8,8,8,0,0,0,5.1-1.4,5,5,0,0,0,1.6-4.1,4.6,4.6,0,0,0-1.7-4,8.8,8.8,0,0,0-5.2-1.3h-4.7V35.4h3.8c4.6,0,6.9-1.7,6.9-5.2a4.8,4.8,0,0,0-1.5-3.8,6,6,0,0,0-4.2-1.3,15.5,15.5,0,0,0-9.6,3.7L503,24.1a14.1,14.1,0,0,1,5.4-3,19.2,19.2,0,0,1,6.7-1.1c3.5,0,6.3.8,8.4,2.5a8.4,8.4,0,0,1,3.1,6.9,8.5,8.5,0,0,1-1.5,5.1,8.2,8.2,0,0,1-4.1,3.2A8.6,8.6,0,0,1,525.8,40.8Z" fill="#f2f1eb"/><path d="M559.3,49h-5.1v7h-6.3V49H532.4V44.3l16.7-23.9h5.1V44h5.1Zm-11.4-5V30.5L538.5,44Z" fill="#f2f1eb"/><path d="M583.3,34.7a9.4,9.4,0,0,1,3.9,4,11.5,11.5,0,0,1,1.4,5.9,11.7,11.7,0,0,1-1.6,6.2,10.3,10.3,0,0,1-4.6,4.1,15.2,15.2,0,0,1-6.9,1.5,21.7,21.7,0,0,1-6.6-1.1,17.3,17.3,0,0,1-5.4-3l2.2-4.8a16,16,0,0,0,9.9,3.8,7.3,7.3,0,0,0,5.1-1.7,6.2,6.2,0,0,0,1.8-4.8,6.3,6.3,0,0,0-1.8-4.7,6.7,6.7,0,0,0-4.9-1.8,11,11,0,0,0-4,.8,8.7,8.7,0,0,0-3.2,2.2h-3.9V20.4H587v5H571v9.7a11.2,11.2,0,0,1,6.4-1.8A11.5,11.5,0,0,1,583.3,34.7Z" fill="#f2f1eb"/><path d="M595.8,51.8c-2.2-3.1-3.3-7.7-3.3-13.6s1.1-10.4,3.3-13.5a12.4,12.4,0,0,1,19.4,0q3.3,4.7,3.3,13.5c0,5.9-1.1,10.4-3.3,13.6a12.4,12.4,0,0,1-19.4,0Zm14.7-3.6c1.1-2.1,1.6-5.4,1.6-10s-.5-7.9-1.6-10a5.6,5.6,0,0,0-10,0c-1.1,2.1-1.6,5.4-1.6,10s.5,7.9,1.6,10a5.5,5.5,0,0,0,10,0Z" fill="#f2f1eb"/></g></g></g></svg>